<svg clip-rule="evenodd" fill-rule="evenodd" stroke-linejoin="round" stroke-miterlimit="1.41421" viewBox="0 0 75 70" xmlns="http://www.w3.org/2000/svg"><path d="m54.752 6.839c1.076-.222 2.19-.338 3.331-.338 9.066 0 16.415 7.349 16.415 16.415 0 4.719-1.991 8.973-5.18 11.967.001.039.001.078.001.118 0 19.053-15.447 34.5-34.5 34.5-19.054 0-34.5-15.447-34.5-34.5 0-19.054 15.446-34.5 34.5-34.5 7.426 0 14.304 2.346 19.933 6.338zm0 0c-7.468 1.539-13.084 8.152-13.084 16.077 0 9.065 7.349 16.414 16.415 16.414 4.347 0 8.299-1.689 11.235-4.447-.038-11.579-5.781-21.815-14.566-28.044z"/></svg>